<svg width="10.517029" height="10.501709" viewBox="0 0 10.517 10.5017" fill="none" xmlns="http://www.w3.org/2000/svg" xmlns:xlink="http://www.w3.org/1999/xlink">
	<desc>
			Created with Pixso.
	</desc>
	<defs/>
	<path id="Path" d="M5.23596 8.60626C5.40466 8.60626 5.55469 8.66248 5.70471 8.73749L8.36719 10.4813C8.40466 10.5187 8.46094 10.5 8.49841 10.4625C8.51721 10.4437 8.51721 10.425 8.51721 10.3875L7.74841 7.10626C7.67346 6.80627 7.78595 6.48749 8.01093 6.28125L10.486 4.08752C10.5234 4.04999 10.5234 4.01251 10.5047 3.99377C10.486 3.95624 10.4672 3.9375 10.4297 3.9375L7.26093 3.69373C6.9422 3.67499 6.66095 3.45001 6.54846 3.15002L5.32971 0.0562744C5.29218 -0.0187378 5.19843 -0.0187378 5.16095 0.0562744L3.97968 3.13123C3.86719 3.43127 3.58594 3.63751 3.26721 3.67499L0.0797119 3.91876C0.0421753 3.91876 0.00469971 3.9375 0.00469971 3.97498C0.00469971 3.99377 -0.0140381 4.04999 0.0234375 4.06873L2.49841 6.26251C2.72345 6.46875 2.83594 6.78748 2.76093 7.08752L1.99219 10.3688C1.99219 10.4062 1.99219 10.425 2.01093 10.4437C2.04846 10.4813 2.08594 10.5 2.14221 10.4625L4.80469 8.71875C4.91718 8.64374 5.0672 8.60626 5.23596 8.60626Z" fill="#006EFF" fill-opacity="1.000000" fill-rule="evenodd"/>
</svg>
